# xmcd
#
# Track frame offsets: 
#        150
#        12518
#        23809
#        29434
#        48663
#        63503
#        74850
#        80596
#        90790
#        103856
#        117893
#        125328
#        139200
#        150330
#        164903
#
# Disc length: 2385 seconds
#
# Revision: 0
# Processed by: cddbd v1.5.2PL0 Copyright (c) Steve Scherf et al.
# Submitted via: ExactAudioCopy v0.99pb4
#
DISCID=d1094f0f
DTITLE=Puritan Rodeo - The Magic Suit Ball
DYEAR=2008
DGENRE=Bluegrass
TTITLE0=Put Down the Money
TTITLE1=Wasted Hours
TTITLE2=Where We Sleep
TTITLE3=Fool's Gold
TTITLE4=Heartpine
TTITLE5=Waiting
TTITLE6=Miss Maudlin
TTITLE7=Whiskey Straits
TTITLE8=Rosemary
TTITLE9=Magic Suit Ball
TTITLE10=Alimony
TTITLE11=Brand New Fancy Mama
TTITLE12=Away
TTITLE13=Nobody I Owe
TTITLE14=Blood on the Line
EXTD=
EXTT0=
EXTT1=
EXTT2=
EXTT3=
EXTT4=
EXTT5=
EXTT6=
EXTT7=
EXTT8=
EXTT9=
EXTT10=
EXTT11=
EXTT12=
EXTT13=
EXTT14=
PLAYORDER=
